<svg width="30" height="30" viewBox="0 0 30 30" fill="none" xmlns="http://www.w3.org/2000/svg">
<path fill-rule="evenodd" clip-rule="evenodd" d="M2.30753 0C1.69554 0 1.10861 0.243131 0.675861 0.675907C0.243114 1.10868 0 1.69565 0 2.30769V27.6923C0 28.3043 0.243114 28.8913 0.675861 29.3241C1.10861 29.7569 1.69554 30 2.30753 30H19.614C19.92 30 20.2135 29.8784 20.4299 29.662C20.6462 29.4457 20.7678 29.1522 20.7678 28.8462C20.7678 28.5401 20.6462 28.2466 20.4299 28.0303C20.2135 27.8139 19.92 27.6923 19.614 27.6923H2.30753V2.30769H19.614C19.92 2.30769 20.2135 2.18613 20.4299 1.96974C20.6462 1.75335 20.7678 1.45987 20.7678 1.15385C20.7678 0.847827 20.6462 0.554342 20.4299 0.337954C20.2135 0.121566 19.92 0 19.614 0H2.30753ZM24.4691 8.99077C24.2524 8.77411 23.9586 8.65239 23.6522 8.65239C23.3458 8.65239 23.052 8.77411 22.8354 8.99077C22.6187 9.20743 22.497 9.50129 22.497 9.80769C22.497 10.1141 22.6187 10.408 22.8354 10.6246L26.059 13.8462H10.3839C10.0779 13.8462 9.78444 13.9677 9.56807 14.1841C9.35169 14.4005 9.23013 14.694 9.23013 15C9.23013 15.306 9.35169 15.5995 9.56807 15.8159C9.78444 16.0323 10.0779 16.1538 10.3839 16.1538H26.059L22.8354 19.3754C22.6187 19.592 22.497 19.8859 22.497 20.1923C22.497 20.4987 22.6187 20.7926 22.8354 21.0092C23.052 21.2259 23.3458 21.3476 23.6522 21.3476C23.9586 21.3476 24.2524 21.2259 24.4691 21.0092L29.661 15.8169C29.7685 15.7097 29.8537 15.5824 29.9119 15.4422C29.9701 15.3021 30 15.1518 30 15C30 14.8482 29.9701 14.6979 29.9119 14.5578C29.8537 14.4176 29.7685 14.2903 29.661 14.1831L24.4691 8.99077V8.99077Z" fill="#835AFD"/>
</svg>
