<svg width="12" height="13" viewBox="0 0 12 13" fill="none" xmlns="http://www.w3.org/2000/svg">
<path d="M4.80008 0.225333C4.87817 0.32171 4.92602 0.439657 4.93742 0.563935C4.94883 0.688212 4.92329 0.813109 4.86408 0.922488C4.40156 1.78497 4.16002 2.75174 4.16167 3.73386C4.16167 7.00105 6.78412 9.64666 10.0162 9.64666C10.4378 9.64666 10.8482 9.60198 11.2426 9.51666C11.3635 9.49007 11.4894 9.50024 11.6047 9.5459C11.7199 9.59157 11.8194 9.6707 11.8906 9.77342C11.9658 9.88023 12.0041 10.0093 11.9996 10.1405C11.9952 10.2717 11.9481 10.3978 11.8658 10.499C11.2383 11.2818 10.4468 11.9126 9.54883 12.3452C8.65088 12.7779 7.66919 13.0016 6.67531 13C2.98725 13 0 9.98224 0 6.26409C0 3.46572 1.69123 1.06549 4.09927 0.0482011C4.21922 -0.00328768 4.35239 -0.0138555 4.47876 0.0180851C4.60513 0.0500256 4.71788 0.12275 4.80008 0.225333Z" fill="white"/>
</svg>
