<svg width="14" height="14" viewBox="0 0 14 14" fill="none" xmlns="http://www.w3.org/2000/svg">
<path d="M6.99886 3.29004C4.95056 3.29004 3.2901 4.95094 3.2901 6.99869C3.2901 9.04755 4.95056 10.7084 6.99886 10.7084C9.04716 10.7084 10.7076 9.04755 10.7076 6.99869C10.7076 4.95094 9.04716 3.29004 6.99886 3.29004V3.29004Z" fill="#FCC21B"/>
<path d="M6.2012 2.61424H7.79776C7.87158 2.61424 7.93989 2.57787 7.98286 2.51726C8.02473 2.45774 8.03465 2.37949 8.00931 2.31006L7.21048 0.147685C7.17742 0.0584127 7.09369 0 6.99893 0C6.90417 0 6.82043 0.0595148 6.78738 0.147685L5.98855 2.31116C5.96321 2.38059 5.97312 2.45774 6.01499 2.51836C6.05797 2.57898 6.12738 2.61424 6.2012 2.61424Z" fill="#FCC21B"/>
<path d="M10.6636 4.46348C10.7055 4.50646 10.7639 4.5296 10.8223 4.5296C10.8355 4.5296 10.8487 4.5285 10.862 4.5263C10.9347 4.51307 10.9953 4.46568 11.0272 4.39845L11.9924 2.30331C12.0321 2.21734 12.0134 2.11705 11.9473 2.04982C11.8801 1.98259 11.7787 1.96495 11.6927 2.00353L9.59927 2.97009C9.53206 3.00095 9.48468 3.06267 9.47146 3.13541C9.45824 3.20815 9.48248 3.282 9.53316 3.3349L10.6636 4.46348V4.46348Z" fill="#FCC21B"/>
<path d="M13.8501 6.78783L11.6861 5.9899C11.6167 5.96455 11.5396 5.97447 11.479 6.01635C11.4184 6.05823 11.3831 6.12656 11.3831 6.2004L11.3842 7.79738C11.3842 7.87122 11.4206 7.94066 11.4812 7.98254C11.5197 8.00789 11.5649 8.02221 11.6101 8.02221C11.6365 8.02221 11.663 8.01781 11.6883 8.00789L13.8523 7.20995C13.9405 7.17799 14 7.09312 14 6.99724C13.9978 6.90466 13.9394 6.8209 13.8501 6.78783V6.78783Z" fill="#FCC21B"/>
<path d="M11.0272 9.60024C11.012 9.5672 10.989 9.53832 10.9603 9.51606C10.9315 9.4938 10.8978 9.47882 10.862 9.4724C10.7892 9.46027 10.7143 9.48342 10.6636 9.53522L9.53426 10.6649C9.48247 10.7167 9.45823 10.7916 9.47145 10.8644C9.48467 10.936 9.53205 10.9988 9.59926 11.0297L11.6938 11.9952C11.7236 12.0095 11.7555 12.015 11.7886 12.015C11.847 12.015 11.9043 11.9919 11.9473 11.9489C12.0145 11.8816 12.0321 11.7814 11.9924 11.6954L11.0272 9.60024V9.60024Z" fill="#FCC21B"/>
<path d="M7.79669 11.3838L6.20014 11.3849C6.12632 11.3849 6.058 11.4213 6.01613 11.4819C5.97426 11.5425 5.96435 11.6196 5.98859 11.688L6.78741 13.8526C6.82047 13.9407 6.90421 14.0002 6.99896 14.0002C7.09372 14.0002 7.17746 13.9407 7.21052 13.8526L8.00934 11.688C8.03468 11.6185 8.02477 11.5414 7.9829 11.4808C7.93993 11.4202 7.87161 11.3838 7.79669 11.3838V11.3838Z" fill="#FCC21B"/>
<path d="M3.33428 9.53522C3.2825 9.48342 3.20867 9.46027 3.13595 9.4724C3.06323 9.48562 3.00153 9.53301 2.97068 9.60024L2.00548 11.6954C1.96581 11.7814 1.98454 11.8827 2.05175 11.9489C2.08427 11.9815 2.12602 12.0033 2.17135 12.0114C2.21668 12.0195 2.2634 12.0134 2.30517 11.9941L4.39975 11.0275C4.43279 11.0123 4.46166 10.9893 4.48392 10.9605C4.50617 10.9317 4.52114 10.898 4.52756 10.8622C4.54079 10.7894 4.51655 10.7156 4.46476 10.6638L3.33428 9.53522Z" fill="#FCC21B"/>
<path d="M2.38998 8.02344C2.43515 8.02344 2.48033 8.00911 2.51889 7.98266C2.57949 7.94078 2.61585 7.87135 2.61585 7.7975L2.61475 6.20052C2.61476 6.16423 2.606 6.12847 2.58923 6.09629C2.57246 6.06411 2.54817 6.03646 2.51842 6.01568C2.48867 5.99491 2.45434 5.98162 2.41836 5.97696C2.38238 5.9723 2.34581 5.9764 2.31175 5.98891L0.147755 6.78796C0.104426 6.80385 0.0670208 6.83266 0.0405956 6.87051C0.0141705 6.90835 0 6.9534 0 6.99956C0 7.04573 0.0141705 7.09077 0.0405956 7.12862C0.0670208 7.16647 0.104426 7.19528 0.147755 7.21117L2.31285 8.00911C2.33819 8.01903 2.36353 8.02344 2.38998 8.02344V8.02344Z" fill="#FCC21B"/>
<path d="M2.97173 4.39832C2.98699 4.43135 3.01 4.4602 3.03879 4.48242C3.06759 4.50465 3.10133 4.51958 3.13713 4.52597C3.17294 4.53235 3.20976 4.52999 3.24446 4.51909C3.27916 4.50819 3.31071 4.48907 3.33644 4.46335L4.46471 3.33367C4.5165 3.28077 4.53964 3.20693 4.52641 3.13418C4.51319 3.06255 4.46581 3.00083 4.3986 2.96997L2.30292 2.00451C2.21698 1.96483 2.11671 1.98357 2.0495 2.05079C1.98229 2.11802 1.96466 2.21832 2.00433 2.30428L2.97173 4.39832V4.39832Z" fill="#FCC21B"/>
</svg>
